<svg id="Layer_1" data-name="Layer 1" xmlns="http://www.w3.org/2000/svg" viewBox="0 0 638 638"><path d="M172.23,198.48a56.24,56.24,0,0,0-7.35.09c-1.64.21-3.16,1.23-4.77,1.81a9.85,9.85,0,0,1-2.75.7c-3.32.17-6.65.18-10,.33-2,.08-4.33-.5-5.35,2.16a1.1,1.1,0,0,1-.89.52c-4.48-.24-8.31,1.46-12.32,3.26s-9.69,1.31-12.7,4c-2.75,2.45-7.57.79-8.73,5.21-.07.26-1.39.12-2.1.29-1.37.33-3-.31-3.59,2.14-.35,1.37-2.79,2.63-4.53,3.14C91.43,223.8,88.45,229,84,232.24c-2.79,2-4.57,5.44-6.85,8.19-1,1.16-2.12,2.17-3.07,3.34-2,2.41-3.86,4.85-5.67,7.35-.39.53-.13,1.5-.46,2.11a39.62,39.62,0,0,1-2.3,3.49c-.13.18-.46.26-.51.44-1.12,4-2.17,7.94-3.34,11.89-.65,2.23-1.55,4.38-2.23,6.6a11.56,11.56,0,0,0-.53,3.24c0,8.75-.1,17.51.07,26.26,0,1.47,1.39,2.86,1.8,4.38a49.73,49.73,0,0,1,.92,5.74c.31,2.2-.53,4.81,2.47,6,.43.17.39,1.53.58,2.33.39,1.67-.86,4.25,2.4,4.36.15,0,.34.34.43.56,1.15,2.9,2,6,3.54,8.66,1.33,2.28,3.49,4.07,5.28,6.08,1,1.11,2,2.22,2.94,3.34,2.22,2.57,4.35,5.23,6.69,7.69,1.52,1.6,3.4,2.86,5.05,4.35s3.29,3.18,4.93,4.78c.39.38.74,1,1.21,1.09,1.92.5,4.57-.32,4.9,2.88,3.84-1,5.58,3.36,9,3.57,1.1.07,2.14,1.09,3.19,1.72.39.23.66.78,1,.86,5.25,1.16,10.49,3.15,15.76,3.23,31.81.46,63.63.47,95.45.64h4.37v58a14.36,14.36,0,0,1-2,.27c-31.45,0-62.9,0-94.35-.17-3,0-6-1.53-9-2.17-1.91-.41-3.9-.48-5.85-.7-3.55-.39-7.21.35-10.47-2.29-1.29-1-3.86-.36-5.74-.88a28.17,28.17,0,0,1-4.85-2.29c-.21-.1-.35-.46-.53-.46-3.15,0-5.93-2.75-8.21-2.83-4.45-.15-7.48-3-11.09-4.32a26.82,26.82,0,0,1-7.06-3.75c-2.57-2-4.85-4.42-8.3-5.24-1.58-.38-3-1.75-4.27-2.93-1.56-1.46-2.83-3.22-4.28-4.79a3.06,3.06,0,0,0-1.45-.85c-3.32-.84-5.26-3.29-7.22-5.84a46.91,46.91,0,0,0-3.53-3.52c-3.38-3.54-7.89-6-9.55-11.22-.57-1.79-3.18-2.87-4.7-4.42a19.84,19.84,0,0,1-3.26-4.13c-1.49-2.71-2.52-5.66-4-8.35-1.35-2.37-3.27-4.42-4.62-6.79-1.44-2.53-2.51-5.27-3.74-7.92-1.12-2.4-1.21-4.92-3-7.47-2.57-3.58-2.51-9-3.71-13.64-.62-2.39-1.59-4.69-2.28-7.06a16.17,16.17,0,0,1-.56-3.59c-.28-5.54-.4-11.09-.79-16.62-.12-1.75-1-3.43-1.37-5.17-.27-1.3-.83-3-.29-3.94,3-5.29,1.4-11.09,2.18-16.6.34-2.42.06-4.93.23-7.39.23-3.1-.36-6.29,2.15-9.06.94-1,.53-3.3.77-5,.34-2.5-.79-5.54,2.56-7,.33-.15.3-1.11.44-1.7.61-2.7-1.17-6.25,2.84-7.81.38-.15.08-1.68.4-2.44.49-1.19,1.29-2.26,1.87-3.42a9.41,9.41,0,0,0,.84-2.27c.35-1.7-.22-3.79,2.46-4.3.46-.09.49-1.79.95-2.62a27.66,27.66,0,0,1,2.15-3.06c.27-.36.8-.66.84-1,.49-3.84,2.73-6.3,5.64-8.74,1.88-1.59,2.44-4.65,4-6.79a34.65,34.65,0,0,1,4.64-4.75c1.31-1.25,2.87-2.27,4.06-3.63,2.35-2.66,4.29-5.72,6.83-8.16,1.77-1.71,4.35-2.55,6.38-4s3.78-3.25,5.65-4.89a25.49,25.49,0,0,1,4-3.4c2.77-1.55,5.84-2.57,8.58-4.15a66,66,0,0,0,6.48-4.75c.19-.14.27-.47.46-.54,3.4-1.18,6.83-2.26,10.19-3.53a24,24,0,0,0,3.74-2.13c.3-.18.53-.69.78-.68,3,.12,5.17-1.31,7.64-2.85s6.33,0,8.47-3.08c6.76.4,12.34-4.88,19.32-3.88,3.55.5,5.34-2.52,7.82-4.59,2.93-2.44,1.34-6.18,3-7.64,3.08-2.66,1.55-7.13,5.1-9.52,1.89-1.28,2.23-4.67,3.69-6.82,1.94-2.87,2.29-6.77,5.66-8.73.36-.22.33-1.13.46-1.72.71-3.17,3-5.11,5.32-7.1A19.19,19.19,0,0,0,163,98.08c1.44-2.25,2.44-4.81,4.06-6.9,1.2-1.56,3.2-2.46,4.61-3.9s2.77-3.44,4.2-5.13a36.64,36.64,0,0,1,3.3-3.52c3.4-3.09,6.48-6.93,10.47-8.86a25.68,25.68,0,0,0,6.83-4.33c2.87-2.92,7.09-3.62,9.5-6.35,1.87-2.1,3.63-2.53,5.9-3.05.58-.13.89-1.48,1.48-2.54,1.86-.6,5,.74,5.89-2.85.06-.29,1.67,0,2.42-.37a34.6,34.6,0,0,0,3.43-2,7.49,7.49,0,0,1,1.79-.94c1.84-.45,4.39.52,4.87-2.56,0-.14.38-.27.61-.33,4.45-1.16,8.93-2.22,13.34-3.52,1.56-.45,2.92-1.58,4.45-2.2a19.17,19.17,0,0,1,3.5-.81c3.25-.65,7.16,1.22,9.6-2.69.33-.52,1.86-.36,2.84-.39,2.71-.1,5.43,0,8.13-.21,2.42-.19,5.25.8,6.9-2.24.27-.49,1.82-.4,2.79-.4,19.23,0,38.47,0,57.71.08,1.35,0,2.68,1.11,4,1.62a10.39,10.39,0,0,0,3,.87c3.45.17,6.91.11,10.35.28,2.23.1,4.33-.09,6.35,1.94,1.22,1.24,4.17.81,6.35,1.05,2.82.32,6-.51,7.92,2.61.1.17.44.2.68.25,4.93,1.19,9.88,2.32,14.8,3.59A17.42,17.42,0,0,1,398,45.86a13.16,13.16,0,0,0,3.21,1.29c2.19.42,4.77-.28,5.88,2.7.15.4,1.58.31,2.41.48,1.55.3,3.62-.35,3.93,2.25,0,.27,1,.5,1.52.63,1.82.43,4.39-.59,4.78,2.56,0,.15.38.36.59.36,5.51.16,8.69,5,13.58,6.69,2.64.88,4.58,3.73,7,5.52,1.71,1.29,3.75,2.15,5.43,3.48,3.46,2.75,6.77,5.71,10.16,8.54,2.89,2.42,5.93,4.66,8.68,7.22,1.46,1.35,2.43,3.22,3.68,4.82,1.11,1.43,2,3.2,3.5,4.11,3.11,2,3.9,5.36,5.85,8a15.73,15.73,0,0,0,3,2.5c3.83,3.09,3.67,9.19,8.64,11.42a.83.83,0,0,1,.38.56c.35,2.35.05,4.6,3.06,6.09,1.65.82,2.08,4,3.18,6.07,1.75,3.3,3.65,6.53,5.38,9.85a15.58,15.58,0,0,1,1.05,3.48c.41,1.64-.36,3.88,2.29,4.35a.46.46,0,0,1,.29.21c1.16,3.82,2.34,7.63,3.46,11.47.43,1.48-.55,3.66,2.1,4,.24,0,.54.5.61.81,1.14,5.21,2.34,10.41,3.32,15.66.54,2.91-.25,6,2.47,8.51,1,.94.61,3.5.74,5.33.2,2.92.32,5.85.49,9.1,2.29.15,4.22.27,6.15.41,3.22.24,6.73-.63,9.2,2.49.24.29.93.23,1.41.32,6.06,1.18,12.45,1.53,18,3.83,3.35,1.38,6.48,2.76,10.07,3.08.77,4.73,7.19.68,8.19,5.22.06.28,1.35.29,2.08.41,1.43.23,3.43-.5,3.49,2.07,0,.19.3.56.4.54,3.94-.84,5.55,3.16,8.67,4.21,2.26.76,4,3,6,4.53s4.06,2.95,6.12,4.38c1.83,1.28,4,2.21,5.48,3.81a127.26,127.26,0,0,1,9.24,11.23c1.86,2.55,3.29,5.35,6.25,7,.46.25.15,1.69.5,2.42a20.27,20.27,0,0,0,2,2.92c.27.37.78.62.93,1,1.22,3.19,1.53,7.3,3.76,9.38,3.18,3,1.35,7.75,4.89,10.15a2.36,2.36,0,0,1,.71,1.66c.57,8.87,4.53,17.28,3.39,26.43-.35,2.85-.83,6.08,2.08,8.52.69.58.26,2.81-.06,4.2-.5,2.26-1.64,4.4-2,6.68-.4,2.91-.17,5.9-.36,8.86-.18,2.78.68,5.73-2.18,8-.89.72-.48,3-.71,4.61-.35,2.41.65,5.35-2.58,6.65a.53.53,0,0,0-.18.3c-1.27,3.75-2.3,7.62-3.88,11.24-1.11,2.54-3.09,4.68-4.46,7.13-.9,1.6-1.4,3.42-2.37,4.81-1.61,2.18-3.27,4.33-4.84,6.55s-2.74,4.39-4.35,6.39-3.52,3.71-5.29,5.56a31.36,31.36,0,0,1-3.24,3.37c-4.32,3.33-8.75,6.51-13.09,9.81-2,1.5-3.82,3.14-5.71,4.72-.18.15-.24.5-.43.58-3.09,1.31-6.22,2.55-9.3,3.91A16.72,16.72,0,0,0,570,425c-.28.2-.41.7-.69.79-4.22,1.29-8.46,2.5-12.66,3.83-1.75.56-3.37,1.55-5.13,2a49,49,0,0,1-6.16.94c-3.2.39-6.65-.46-9.29,2.45-.58.63-2.11.52-3.2.52q-62.16.09-124.31.11a8.33,8.33,0,0,1-1.44-.32c-.09-1.24-.25-2.55-.25-3.86q0-24,0-48.08c0-6,0-6,5.85-6q52.73,0,105.45,0c5.67,0,11.41.13,17-.76,4-.64,8.32-1.52,11.24-5.09.43-.53,1.69-.28,2.42-.67a30.73,30.73,0,0,0,3.13-2.12c.45-.31.89-.84,1.38-.89,3.7-.41,5.41-3.57,8.05-5.42,3.72-2.62,6-6.19,8-9.76,1.48-2.66,5-4.36,4.4-8.14,5-2.46,1.18-8.8,5.15-11.86.71-.54.63-2.32.64-3.53.07-5.18.18-10.37-.06-15.53-.07-1.64-1.21-3.21-1.82-4.83a4.43,4.43,0,0,1-.56-2.09c1-4.71-2-8.77-4.08-11.79-2.5-3.57-3.39-8.52-8.22-10.87-2.95-1.44-4.77-5.17-7.11-7.86-.23-.26-.54-.62-.83-.63-4.14-.13-6.17-3.48-9.11-5.55s-7.23-2.16-10.31-4.1c-4.46-2.81-10.21-1.57-14.33-5.29-1-.94-3.31-.47-5-.74-2.47-.41-5.49.93-7.08-2.43-.23-.49-1.82-.46-2.78-.49-3.94-.12-7.89-.06-11.83-.28-2.46-.13-5.18.53-7.07-2.07-.39-.55-1.84-.44-2.81-.45-4.78,0-9.55,0-14.85,0,0-4.57.13-8.61-.08-12.64-.06-1.23-1.08-2.4-1.58-3.64a18.63,18.63,0,0,1-1.1-3.39c-.81-4.26,1-9-2.71-12.82-1-1-.16-3.61-.59-5.39a51.83,51.83,0,0,0-2.13-5.49,27.5,27.5,0,0,1-.86-3.11c-.6-2.39.7-5.55-2.85-6.79-.32-.12-.27-1.37-.36-2.09-.33-2.47.25-5.21-2.6-6.84-.53-.3-.18-1.9-.55-2.78a25.62,25.62,0,0,0-1.95-3.29c-.29-.47-.8-.91-.84-1.41-.22-2.18-.4-3.81-2.55-5.64s-2.45-5.75-3.7-8.69a28.78,28.78,0,0,0-1.92-2.92c-.46-.78-.66-1.71-1.14-2.47-.74-1.16-1.63-2.23-2.43-3.36a3.81,3.81,0,0,1-.84-1.44c-.55-3.54-2.55-5.94-5.4-8a11.23,11.23,0,0,1-3.28-4.87c-1.83-4.66-5.45-7.65-9.05-10.77-1.48-1.28-2.35-3.23-3.73-4.66-1.53-1.59-3.31-2.94-5-4.38-1.21-1-2.53-2-3.65-3.07-2.51-2.55-4.91-5.2-7.39-7.79a2.53,2.53,0,0,0-1.18-.73c-3.61-.8-5.94-3.31-8.24-5.93a3.91,3.91,0,0,0-1.95-.74c-1.55-.35-3.62.23-3.81-2.39,0-.24-1-.5-1.53-.6-1.79-.33-4.11.39-4.51-2.55,0-.27-1.27-.37-1.95-.55-1.62-.44-3.94.42-4.29-2.36,0-.17-.33-.36-.55-.43-3.56-1.15-7.16-2.21-10.7-3.43-1.56-.54-3-1.54-4.52-2.06a41.49,41.49,0,0,0-5-1.09c-2.68-.54-6,.93-7.8-2.56-.26-.5-1.83-.41-2.8-.44-3.82-.12-7.65-.06-11.46-.31-2.57-.16-5.44.61-7.43-2.11-.4-.54-1.86-.4-2.83-.41-6.41,0-12.83-.13-19.23.07-1.5,0-3,1.16-4.45,1.7a9.92,9.92,0,0,1-2.75.69c-3.33.16-6.66.12-10,.31-2.28.13-4.68-.67-6.43,2.19-.63,1-3.68.52-5.61.85-2.23.38-5.11-.85-6.31,2.38-.08.24-.61.35-1,.45-4.18,1.21-9.26,1.36-12.29,3.93-2.63,2.21-7.15,1.1-8.26,5.21-.05.21-.64.37-1,.38-4,.09-6.5,2.54-8.79,5.4a1.49,1.49,0,0,1-1,.42c-3.79.32-5.51,3.41-8,5.66-3,2.74-6.59,4.77-9.68,7.41a97.5,97.5,0,0,0-8,8c-2.16,2.31-4.54,4.59-6,7.31-2.07,3.76-6.58,5.63-7.3,10.55-.27,1.83-2.93,3.31-4.51,4.94-.24.25-.63.41-.76.7-1.3,2.86-2.38,5.83-3.87,8.57-1.3,2.39-3.21,4.45-4.58,6.81a48.29,48.29,0,0,0-3.43,7.32c-1.45,3.94-2.64,8-3.94,12a5.59,5.59,0,0,1-.46,1.36c-1.11,1.79-2.28,3.56-3.43,5.33Z"/><path d="M290,201.51h58.28v5.35c0,63.72,0,189.09,0,252.82,0,5.76.39,6.15,6,6.15H426.8c1.11,0,2.48-.33,3.25.19s1.72,2.49,1.41,2.87c-2.76,3.42-5.88,6.55-8.69,9.94-2.33,2.81-3.93,6.4-6.67,8.68-3,2.5-3.5,6.31-6,8.84-1.51,1.51-3.36,2.68-4.88,4.17a23.69,23.69,0,0,0-3.45,4.16c-1.47,2.29-2.6,4.8-4.08,7.09a11.85,11.85,0,0,1-3.17,3.47c-4.5,3-6.32,8-9.44,12.09-1.27,1.64-3.41,2.59-4.82,4.15s-2.54,3.69-3.87,5.5c-1.6,2.18-3.28,4.3-5,6.42-1.47,1.87-2.95,3.72-4.47,5.55-1.91,2.29-4.46,4.26-5.65,6.86-2.5,5.46-8.61,8-10.45,14-.54,1.79-3.07,2.93-4.5,4.53s-2.33,3.82-4,5c-3.76,2.8-4.2,7.88-8.45,10.64-3.21,2.09-4.83,6.56-7.32,9.86-1.42,1.88-3.16,3.52-4.74,5.28-.36.4-.68.84-1,1.26s-1,1.12-1.42,1.69c-.55-.6-1.1-1.2-1.66-1.79-1-1.08-2.08-2.11-3-3.25-1.89-2.29-3.78-4.6-5.54-7-1.41-1.89-2.33-4.25-4-5.77-1.25-1.1-2.47-1.8-3.37-3.5-1.43-2.73-3.74-5-5.79-7.4-1.62-1.87-3.57-3.47-5.07-5.43s-2.82-4.42-4.25-6.62a33,33,0,0,0-3.37-4.77c-2.49-2.62-5.25-5-7.83-7.56a5.35,5.35,0,0,1-.84-2c-1-2.81-3-4.72-5.32-6.44a15.59,15.59,0,0,1-3.5-3.7c-1.41-2.05-2.48-4.34-3.82-6.45a29.34,29.34,0,0,0-3.54-4.84c-2.53-2.62-5.84-4.68-7.75-7.66-1.32-2.06-2-4.53-4-6.31-1.7-1.54-3.18-3.33-4.74-5a37.89,37.89,0,0,1-3.77-4.27c-1.46-2.18-2.42-4.71-4-6.79-1.3-1.72-3.23-3-4.79-4.5-1.3-1.29-3.21-2.55-3.56-4.12-.88-3.92-4.46-5.54-6.2-8.36-2.23-3.61-6.63-5.6-7.28-10.46-.22-1.66-2.76-3-4.13-4.53a4.3,4.3,0,0,1-1.25-2.5c0-.45,1.39-1.05,2.23-1.22a16.68,16.68,0,0,1,3.32-.08h72.12c5,0,5.38-.36,5.38-5.52,0-64.58,0-190.82,0-255.41Z"/><path d="M420.86,312.93H217.62V254.67H420.41Z"/></svg>